<?xml version="1.0" encoding="utf-8"?>
<!-- Generator: Adobe Illustrator 24.1.2, SVG Export Plug-In . SVG Version: 6.00 Build 0)  -->
<svg version="1.1" id="Слой_1" xmlns="http://www.w3.org/2000/svg" xmlns:xlink="http://www.w3.org/1999/xlink" x="0px" y="0px"
	 viewBox="0 0 355 248.6" style="enable-background:new 0 0 355 248.6;" xml:space="preserve">
<path d="M138.3,108.3c4.3-2.1,8.5-4.2,12.7-6.2c37.1-17.2,74.3-16.8,110.8,0.8c29,14,44.7,38.4,48.9,70.2c0.3,2.3,0.6,4.7,1,7.6
	c1.7-0.7,3.2-1.3,4.7-2c7.8-3.8,15-8.3,20.7-15c8.1-9.5,8.1-20.5,6.1-31.9c-2.2-12.3-7.2-23.5-12.5-34.7
	c-6.6-13.8-13.6-27.5-17.5-42.4C309,38,309,21.4,313,4.7c0.8-3.3,3.4-5.2,6.2-4.6c2.9,0.6,4.9,3.4,4.1,6.5
	c-6.6,26.2-0.3,50.3,11.1,73.7c6.8,14,14.1,27.8,17.8,43.1c2.4,9.9,4,19.9,1.6,30c-3.6,14.6-13.7,23.9-26.2,31.2
	c-4.2,2.4-8.7,4.4-13.1,6.3c-2.1,0.9-2.7,2.1-3.1,4.4c-1.4,7.3-2.3,14.9-5.1,21.7c-6.4,15.9-19.8,23.8-35.7,27.8
	c-14.3,3.6-28.9,3.9-43.5,3.9c-68.2,0-136.5,0-204.7,0c-13.4,0-22.8-9-22.4-21.2c0.2-5.9,2.6-10.8,6.9-14.8
	c14.4-13.3,28.8-26.6,43.3-39.7c1.8-1.7,2.6-3.1,2.3-5.7c-1.3-13.8-2.3-27.6,0.6-41.4c1.4-6.8,3.9-13.2,8.8-18.3
	c6.2-6.2,13.8-8.8,22.5-8c2.6,0.3,4.5-0.3,6.7-2.1c13.2-11.3,35.8-7.2,45.5,8.1C137.1,106.3,137.6,107.2,138.3,108.3z M132.1,238.1
	c31.2,0,62.4,0,93.6,0c13.4,0,26.7-0.2,39.8-3.1c16.5-3.6,29.6-11.5,33.5-29c1.9-8.6,2.3-17.9,1.8-26.7c-1.5-23-10-43.1-28.6-57.5
	c-28.6-22-61.3-26-95.5-18c-21.7,5-40.5,17.1-58.9,29.5c-1,0.7-1.4,2.9-1.5,4.4c-0.2,7.8-0.1,15.7-0.5,23.5c-0.2,3.9-3.4,6-6.7,5
	c-3-0.9-3.8-3.2-3.6-6.2c0.3-5.8,0.8-11.7,0.6-17.5c-0.3-8.1-1.4-16.1-6-23.2c-4.9-7.6-12.2-10-20.7-9.2
	c-7.7,0.8-12.1,5.7-14.5,12.8c-0.5,1.5-1,3.1-1.3,4.7c-3,13.9-1.9,27.8-0.2,41.7c0.4,3.7-0.3,6.4-3.2,8.9c-8.1,7-16.1,14.2-24,21.4
	c-7.5,6.9-15,13.9-22.3,21.1c-5.7,5.6-4.1,14.2,3.1,16.8c2,0.7,4.4,0.8,6.6,0.8C59.7,238.2,95.9,238.1,132.1,238.1z M100.4,103.9
	c2.7,3,5.6,5.6,7.8,8.7c2.3,3.2,3.8,6.8,5.8,10.4c5.1-3.2,10-6.3,14.8-9.4C124,102.7,110.5,98.2,100.4,103.9z"/>
<path d="M76.1,180.9c7.8,0,13.9,6.2,14,14c0,7.9-6.3,14.3-14.1,14.3c-7.8,0-14.3-6.5-14.2-14.3C61.7,187.2,68.1,180.9,76.1,180.9z
	 M75.2,199.4c0.6,0,1.2,0,1.7-0.1c0.8-1.5,2.5-3.1,2.3-4.5c-0.1-1.2-2.3-3.1-3.5-3.1c-1.2,0.1-3.3,2.1-3.3,3.3
	C72.4,196.5,74.2,197.9,75.2,199.4z"/>
</svg>
